<svg width="14" height="14" viewBox="0 0 14 14" fill="none" xmlns="http://www.w3.org/2000/svg">
<g clip-path="url(#clip0_15_525)">
<path d="M8.16663 10.5C8.16663 10.5 8.74996 10.5 9.33329 11.6667C9.33329 11.6667 11.1863 8.74999 12.8333 8.16666" stroke="#4F4F4F" stroke-linecap="round" stroke-linejoin="round"/>
<path d="M7.58329 12.8333H3.84463C2.94316 12.8333 2.22614 12.3947 1.58234 11.7813C0.264423 10.5257 2.42826 9.52232 3.25354 9.03092C5.10757 7.92696 7.43915 7.88059 9.33329 8.89186" stroke="#4F4F4F" stroke-linecap="round" stroke-linejoin="round"/>
<path d="M9.625 3.79166C9.625 5.2414 8.44976 6.41666 7 6.41666C5.55025 6.41666 4.375 5.2414 4.375 3.79166C4.375 2.34191 5.55025 1.16666 7 1.16666C8.44976 1.16666 9.625 2.34191 9.625 3.79166Z" stroke="#4F4F4F"/>
</g>
<defs>
<clipPath id="clip0_15_525">
<rect width="14" height="14" fill="white"/>
</clipPath>
</defs>
</svg>
