<svg width="20" height="20" viewBox="0 0 20 20" fill="none" xmlns="http://www.w3.org/2000/svg">
<g clip-path="url(#clip0_14_342)">
<path d="M9.5625 11.0625C10.3909 11.0625 11.0625 10.3909 11.0625 9.5625C11.0625 8.73407 10.3909 8.0625 9.5625 8.0625C8.73407 8.0625 8.0625 8.73407 8.0625 9.5625C8.0625 10.3909 8.73407 11.0625 9.5625 11.0625Z" fill="#A1A1A1"/>
<path d="M9.5625 5.75C10.3909 5.75 11.0625 5.07843 11.0625 4.25C11.0625 3.42157 10.3909 2.75 9.5625 2.75C8.73407 2.75 8.0625 3.42157 8.0625 4.25C8.0625 5.07843 8.73407 5.75 9.5625 5.75Z" fill="#A1A1A1"/>
<path d="M9.5625 16.375C10.3909 16.375 11.0625 15.7034 11.0625 14.875C11.0625 14.0466 10.3909 13.375 9.5625 13.375C8.73407 13.375 8.0625 14.0466 8.0625 14.875C8.0625 15.7034 8.73407 16.375 9.5625 16.375Z" fill="#A1A1A1"/>
</g>
<defs>
<clipPath id="clip0_14_342">
<rect width="20" height="20" rx="5" fill="white"/>
</clipPath>
</defs>
</svg>
