<svg width="19" height="19" viewBox="0 0 19 19" fill="none" xmlns="http://www.w3.org/2000/svg">
<path d="M11.8673 5.98491L11.6631 6.6443C11.4958 7.18463 11.4122 7.45478 11.4765 7.66816C11.5286 7.84073 11.6428 7.98954 11.7985 8.08745C11.9909 8.20843 12.282 8.20843 12.8643 8.20843H13.174C15.1444 8.20843 16.1296 8.20843 16.5949 8.79171C16.6481 8.85833 16.6954 8.92925 16.7363 9.00361C17.0943 9.65405 16.6873 10.5304 15.8733 12.283C15.1264 13.8913 14.7529 14.6954 14.0594 15.1688C13.9923 15.2145 13.9233 15.2578 13.8526 15.2983C13.1225 15.7168 12.218 15.7168 10.4089 15.7168H10.0165C7.82465 15.7168 6.72876 15.7168 6.04785 15.0571C5.36694 14.3973 5.36694 13.3354 5.36694 11.2118V10.4653C5.36694 9.3493 5.36694 8.79132 5.565 8.28057C5.76306 7.76982 6.14231 7.34987 6.90081 6.50997L10.0376 3.03654C10.1162 2.94943 10.1555 2.90587 10.1903 2.87568C10.514 2.59396 11.0136 2.62567 11.2967 2.94591C11.327 2.98022 11.3601 3.02837 11.4264 3.12469C11.53 3.27535 11.5819 3.35068 11.6271 3.42531C12.0314 4.09344 12.1538 4.88712 11.9686 5.64059C11.9479 5.72475 11.921 5.81152 11.8673 5.98491Z" fill="#61BE92"/>
</svg>
