<svg width="19" height="19" viewBox="0 0 19 19" fill="none" xmlns="http://www.w3.org/2000/svg">
<path d="M12.4674 12.4152L12.2632 11.7558C12.0959 11.2155 12.0123 10.9454 12.0766 10.732C12.1287 10.5594 12.2429 10.4106 12.3986 10.3127C12.591 10.1917 12.8821 10.1917 13.4644 10.1917H13.7741C15.7445 10.1917 16.7297 10.1917 17.195 9.60844C17.2482 9.54182 17.2955 9.4709 17.3364 9.39653C17.6944 8.74609 17.2874 7.86979 16.4734 6.1172C15.7265 4.50888 15.353 3.70472 14.6595 3.23138C14.5924 3.18561 14.5234 3.14237 14.4527 3.1019C13.7226 2.68337 12.8181 2.68337 11.0089 2.68337H10.6166C8.42474 2.68337 7.32886 2.68337 6.64795 3.34309C5.96704 4.00288 5.96704 5.06471 5.96704 7.18838V7.93481C5.96704 9.05084 5.96704 9.60882 6.1651 10.1196C6.36316 10.6303 6.74241 11.0503 7.5009 11.8902L10.6377 15.3636C10.7163 15.4507 10.7556 15.4943 10.7904 15.5245C11.1141 15.8062 11.6137 15.7745 11.8967 15.4542C11.9271 15.4199 11.9602 15.3718 12.0265 15.2755C12.1301 15.1248 12.1819 15.0495 12.2272 14.9748C12.6315 14.3067 12.7539 13.513 12.5687 12.7596C12.548 12.6754 12.5211 12.5886 12.4674 12.4152Z" fill="#BEBEBE"/>
</svg>
